<svg xmlns="http://www.w3.org/2000/svg" viewBox="0 0 235 104.03"><defs><style>.cls-1{fill:#32afc5;}</style></defs><g id="Слой_2" data-name="Слой 2"><g id="Layer_26" data-name="Layer 26"><path class="cls-1" d="M179.44,85.8c0,9.48,9.48,17.17,21.17,17.17s21.17-7.69,21.17-17.17-9.48-17.18-21.17-17.18S179.44,76.31,179.44,85.8Z"/><path class="cls-1" d="M21.09,86.85c0,9.49,9.48,17.18,21.17,17.18s21.17-7.69,21.17-17.18S54,69.68,42.26,69.68,21.09,77.37,21.09,86.85Z"/><path class="cls-1" d="M215.33,41.79c-13.9-3.36-39.85-6.13-43-6.69a2.72,2.72,0,0,1-1.41-.78c-2.14-2.53-22.83-28.07-27.55-29.86C126.37-2,56.64-1.27,45.75,5.55,35.46,12,23.44,32.17,20.59,36.81c-.13.21-6.83,3.94-7.12,4.13-1.86,1.3-10.73,7.4-12.35,14.76,0,0-1.56,17.86-1,22.49.37,3.1,6.52,8.66,10.19,9H11.6a5.41,5.41,0,0,0,1.42.2c2.24,0,4.05-1.33,4.05-3,0-.07,0-.14,0-.21.61-9.86,11.74-17.72,25.39-17.72S67.18,74,67.77,83.83c0,.06,0,.52,0,.58,0,1.63,1.81,3,4,3a5,5,0,0,0,2.31-.55c3.62,1.71,11.24,2.5,14.92,2.5l71.58-.12c4,0,8.84-.7,10.88-2.61h0c2.21,0,4-1.33,4-3a1.52,1.52,0,0,0,0-.21c.61-9.86,11.61-17.72,25.1-17.72s24.46,7.47,25,17.35c0,.06,0,.52,0,.58,0,1.63,1.79,3,4,3s3.87-1.25,4-2.81h0a.34.34,0,0,0,0-.1s0,0,0,0a.43.43,0,0,0,0-.11,18.18,18.18,0,0,0-.75-4.47c.54-6.48,1.16-15.93,1.86-18.65C236.61,53.22,227.35,44.7,215.33,41.79Z"/></g></g></svg>