<svg xmlns="http://www.w3.org/2000/svg" width="19" height="19" viewBox="0 0 19 19">
  <defs>
    <style>
      .cls-1 {
        fill: #fff;
        fill-rule: evenodd;
        opacity: 0.5;
      }
    </style>
  </defs>
  <path id="blog" class="cls-1" d="M1235.44,4059.5a6.039,6.039,0,0,0,6.02-5.99l0.04-4.86-0.06-.26-0.16-.33-0.27-.21c-0.35-.27-2.12.02-2.59-0.41a2.685,2.685,0,0,1-.5-1.63,4.731,4.731,0,0,0-.54-2.04,6.6,6.6,0,0,0-4.65-3.27h-4.21a6.028,6.028,0,0,0-6.02,6v7.01a6.026,6.026,0,0,0,6.02,5.99h6.92Zm-6.84-14.1h3.34a1.15,1.15,0,0,1,0,2.3h-3.34A1.15,1.15,0,1,1,1228.6,4045.4Zm-1.16,8.02a1.159,1.159,0,0,1,1.16-1.15h6.78a1.145,1.145,0,1,1,0,2.29h-6.78A1.157,1.157,0,0,1,1227.44,4053.42Z" transform="translate(-1222.5 -4040.5)"/>
</svg>
