<svg xmlns="http://www.w3.org/2000/svg" viewBox="0 0 235 162.39"><defs><style>.cls-1{fill:#32afc5;}</style></defs><g id="Слой_2" data-name="Слой 2"><g id="Layer_26" data-name="Layer 26"><path class="cls-1" d="M225.7,143.81c-.91-.24-1.89-.24-2.8-.51a2.13,2.13,0,0,1-1.33-1c-.86-2.35-2.63-2.93-4.91-2.92-10.18,0-20.37,0-30.55,0-18.06,0-36.13,0-54.19,0-2.62,0-5,.17-5.88,3.24-.11.37-1,.63-1.54.71-8.1,1.18-12.94,7.57-11.76,15.59.33,2.25,1.84,3.39,4.67,3.41,7.8,0,15.6,0,23.39,0q44.4,0,88.8,0c2.34,0,4.22-.5,5.4-2.65V154C233.59,149.07,231,145.2,225.7,143.81Z"/><path class="cls-1" d="M120.72,81.13l8.1-2.77.8-.24c3.08,3.74,5.62,3.35,7.65-1a1.85,1.85,0,0,1,1.18-.9c.73-.12,1.47-.21,2.23-.29l3.71,11.48a6.24,6.24,0,0,0,7.85,4l.14,0a4.07,4.07,0,0,1,2.92,5.37,3.4,3.4,0,0,1-1.56,1.58c-3.94,2.2-5.36,5.53-4.08,9.81.23.76.51,1.51.76,2.26,1.74,5.28,5.49,7.27,10.73,5.58q17.58-5.67,35.14-11.41c2.57-.83,5.16-1.62,7.7-2.54a7.51,7.51,0,0,0,4.86-9.55c-.35-1.23-.72-2.45-1.15-3.64a7.57,7.57,0,0,0-8.4-5.17,4.42,4.42,0,0,1-4.37-6,.35.35,0,0,0,0-.08l.72-.23a6.24,6.24,0,0,0,2.8-1.88A3.82,3.82,0,0,0,200,71.49a6.1,6.1,0,0,0-.3-1.92L186.6,29a6.27,6.27,0,0,0-7.86-4l-1,.33a3.65,3.65,0,0,1-1.42-2.08c-.83-2.22-.91-4.12,1.49-5.18,3.57-1.59,5-5.25,3.9-9-.32-1.15-.71-2.28-1.1-3.4C179,1.07,175.13-1,170.59.46Q149.16,7.38,127.75,14.4c-4.71,1.54-6.66,5.44-5.24,10.16a36.83,36.83,0,0,0,1.29,3.84,7.56,7.56,0,0,0,8.33,4.54c2.44-.39,3.33.34,4.18,3.31a4.05,4.05,0,0,1,.12,2.36l-1.14.37a6.25,6.25,0,0,0-4,7.85l3.82,11.83L133,59.91c-2.08-.55-3.71-1.48-5.07-1.18a4.61,4.61,0,0,0-2.75,3,2.6,2.6,0,0,1-2.08,2.35l-5.59,1.72a9.47,9.47,0,0,0-9.13-1.74L33.82,89.39A9.33,9.33,0,0,0,29.11,93L16.43,96.85a8.94,8.94,0,0,1-3.5.21A11.45,11.45,0,0,0,5.13,118a11.62,11.62,0,0,0,14.32-1.29,8.23,8.23,0,0,1,2.71-1.8l12.55-4.3a9.37,9.37,0,0,0,6.34.11l74.53-25.3A9.36,9.36,0,0,0,120.72,81.13Z"/></g></g></svg>