<svg xmlns="http://www.w3.org/2000/svg" width="10" height="19" viewBox="0 0 10 19">
  <defs>
    <style>
      .cls-1 {
        fill: #32afc5;
        fill-rule: evenodd;
      }
    </style>
  </defs>
  <path id="facebook" class="cls-1" d="M1176.62,4041h-2.4c-2.69,0-4.43,1.83-4.43,4.68v2.15h-2.41a0.382,0.382,0,0,0-.38.39v3.12a0.382,0.382,0,0,0,.38.39h2.41v7.88a0.38,0.38,0,0,0,.37.39h3.15a0.382,0.382,0,0,0,.38-0.39v-7.88h2.82a0.374,0.374,0,0,0,.37-0.39l0.01-3.12a0.43,0.43,0,0,0-.11-0.28,0.4,0.4,0,0,0-.27-0.11h-2.82V4046a1.085,1.085,0,0,1,1.32-1.32h1.61a0.388,0.388,0,0,0,.38-0.39v-2.9A0.388,0.388,0,0,0,1176.62,4041Z" transform="translate(-1167 -4041)"/>
</svg>
