<svg xmlns="http://www.w3.org/2000/svg" viewBox="0 0 235.27 184.07"><defs><style>.cls-1{fill:#32afc5;}</style></defs><g id="Слой_2" data-name="Слой 2"><g id="Layer_26" data-name="Layer 26"><path class="cls-1" d="M50.82,117.21A62.17,62.17,0,0,1,63.91,100,54.91,54.91,0,0,1,80,89.86a43.38,43.38,0,0,1-3.84-6.13,41.85,41.85,0,0,1-4.68-19.29A41.61,41.61,0,0,1,71.72,60a37.92,37.92,0,0,1-28,0,36,36,0,0,1-11.4-7.25C17.55,57.91,7.86,71.69,5.2,89.62L0,120.38H49.34C49.81,119.53,50.31,118.18,50.82,117.21Z"/><path class="cls-1" d="M39.17,50.34a31,31,0,0,0,34.05,2.12,44.43,44.43,0,0,1,1.89-5.12,43.9,43.9,0,0,1,9.89-14c.76-.72,1.54-1.41,2.34-2.08a25.07,25.07,0,0,0,.17-3C87.51,12.66,74.2,0,57.79,0S28.06,12.66,28.06,28.29A27.77,27.77,0,0,0,39.17,50.34Z"/><path class="cls-1" d="M191.53,59.91a37.92,37.92,0,0,1-28,.05,42.1,42.1,0,0,1-1,14.55,43.38,43.38,0,0,1-7.24,15.35c12.42,5.06,22.45,14.45,29.12,27.12.55,1,1.08,2.55,1.58,3.4h49.24l-5.2-30.76c-2.66-17.93-12.35-31.8-27.14-37A36.09,36.09,0,0,1,191.53,59.91Z"/><path class="cls-1" d="M150.27,33.38a43.9,43.9,0,0,1,9.89,14,44.43,44.43,0,0,1,1.89,5.12,31,31,0,0,0,34-2.12,27.74,27.74,0,0,0,11.11-22.05C207.21,12.66,193.9,0,177.49,0s-29.73,12.66-29.73,28.29a27.33,27.33,0,0,0,.17,3C148.73,32,149.51,32.66,150.27,33.38Z"/><path class="cls-1" d="M177.71,121.15c-6.11-11.6-15.49-20.22-27.51-24.46h0A46.35,46.35,0,0,1,135.59,106l-1.25.49-1.27.44c-.67.23-1.36.45-2,.64l-.19.06-.74.2-1.32.33c-.43.11-.86.2-1.29.29h0a48.09,48.09,0,0,1-5.74.83h0c-1.35.11-2.71.18-4.08.18s-2.73-.15-4.08-.15h0a30.72,30.72,0,0,1-6.92-1.1.56.56,0,0,1-.12,0l-.46-.11-.21,0-.22-.06-.4-.1-.4-.11A47,47,0,0,1,99.68,106l-.14-.06a46.51,46.51,0,0,1-10-5.52l-.43-.32-.42-.31-.4-.31L88,99.23,87.65,99c-.88-.71-1.73-1.45-2.56-2.23,0,0,0,.07,0,.07C73.13,101,63.8,109.7,57.68,121.19c0,.07-.08.18-.12.26a72.24,72.24,0,0,0-7.16,22.92l-6.65,39.7H191.53l-6.66-39.7A74.15,74.15,0,0,0,177.71,121.15Z"/><path class="cls-1" d="M79.62,64.43a35.46,35.46,0,0,0,14.21,28.2,38.79,38.79,0,0,0,18.38,7.61,41.06,41.06,0,0,0,10.85,0,38.79,38.79,0,0,0,18.38-7.61,35.46,35.46,0,0,0,14.21-28.2,34.49,34.49,0,0,0-1.46-9.94C149.65,39.35,135,28.26,117.64,28.26s-32,11.09-36.56,26.23A34.49,34.49,0,0,0,79.62,64.43Z"/></g></g></svg>