<svg xmlns="http://www.w3.org/2000/svg" width="46" height="30" viewBox="0 0 46 30">
  <defs>
    <style>
      .cls-1 {
        fill-rule: evenodd;
        opacity: 0.2;
      }
    </style>
  </defs>
  <path id="quote" class="cls-1" d="M769.383,3250.99A10.609,10.609,0,0,0,779.9,3240.2a10.766,10.766,0,0,0-10.7-10.79,1.428,1.428,0,0,0-.206.01,13.338,13.338,0,0,1,8.433-3.01,2.673,2.673,0,0,0,2.651-2.7,2.485,2.485,0,0,0-2.414-2.7A18.869,18.869,0,0,0,759,3240.2v0.01A10.5,10.5,0,0,0,769.383,3250.99Zm24.914,0a10.616,10.616,0,0,0,10.521-10.79,10.763,10.763,0,0,0-10.7-10.79,1.394,1.394,0,0,0-.2.01,13.341,13.341,0,0,1,8.434-3.01,2.675,2.675,0,0,0,2.652-2.7,2.5,2.5,0,0,0-2.429-2.7,18.881,18.881,0,0,0-18.68,19.19v0.01A10.517,10.517,0,0,0,794.3,3250.99Z" transform="translate(-759 -3221)"/>
</svg>
