<svg xmlns="http://www.w3.org/2000/svg" width="24" height="24" viewBox="0 0 24 24">
  <defs>
    <style>
      .cls-1 {
        fill: #fff;
        fill-rule: evenodd;
      }
    </style>
  </defs>
  <path id="search" class="cls-1" d="M1398.02,601.735a9.4,9.4,0,1,0-1.29,14.348,2.036,2.036,0,0,0,.54,1l5.33,5.331a1.986,1.986,0,1,0,2.81-2.806l-5.33-5.333a2,2,0,0,0-1-.535A9.4,9.4,0,0,0,1398.02,601.735Zm-1.69,11.6a7.01,7.01,0,1,1,0-9.916A7.014,7.014,0,0,1,1396.33,613.336Z" transform="translate(-1382 -599)"/>
</svg>
