<svg xmlns="http://www.w3.org/2000/svg" width="27" height="26.82" viewBox="0 0 27 26.82">
  <defs>
    <style>
      .cls-1 {
        fill-rule: evenodd;
        opacity: 0.5;
      }
    </style>
  </defs>
  <path id="slider-arrow" class="cls-1" d="M819.843,2958.27a13.192,13.192,0,0,0-7.189-7.12,13.5,13.5,0,0,0-5.256-1.07,13.567,13.567,0,0,0-12.415,8.19,13.36,13.36,0,0,0,0,10.44,13.222,13.222,0,0,0,7.175,7.13,13.083,13.083,0,0,0,5.24,1.08,13.631,13.631,0,0,0,12.445-8.21A13.177,13.177,0,0,0,819.843,2958.27Zm-2.155,11.15a11.869,11.869,0,0,1-4.34,4.3,11.711,11.711,0,0,1-5.95,1.58,11.507,11.507,0,0,1-4.605-.94,11.571,11.571,0,0,1-6.3-6.28,11.821,11.821,0,0,1,.65-10.5,11.9,11.9,0,0,1,4.325-4.3,11.963,11.963,0,0,1,11.884,0,11.892,11.892,0,0,1,4.34,4.3A11.784,11.784,0,0,1,817.688,2969.42Zm-11.854-13.69a0.82,0.82,0,0,0-1.151-.03,0.8,0.8,0,0,0-.03,1.14l6.6,6.73-6.6,6.56a0.815,0.815,0,0,0,.605,1.38,0.766,0.766,0,0,0,.576-0.25l7.16-7.09a0.825,0.825,0,0,0,0-1.14Z" transform="translate(-793.906 -2950.09)"/>
</svg>
