<svg xmlns="http://www.w3.org/2000/svg" width="23.38" height="19" viewBox="0 0 23.38 19">
  <defs>
    <style>
      .cls-1 {
        fill: #fff;
        fill-rule: evenodd;
        opacity: 0.5;
      }
    </style>
  </defs>
  <path id="twitter" class="cls-1" d="M1312.2,4043.24a9.812,9.812,0,0,1-2.76.76,4.858,4.858,0,0,0,2.11-2.66,9.708,9.708,0,0,1-3.05,1.17,4.8,4.8,0,0,0-8.3,3.28,5.011,5.011,0,0,0,.12,1.1,13.641,13.641,0,0,1-9.89-5.02,4.811,4.811,0,0,0,1.48,6.41,4.856,4.856,0,0,1-2.17-.6v0.06a4.814,4.814,0,0,0,3.85,4.71,4.784,4.784,0,0,1-1.26.16,5.5,5.5,0,0,1-.91-0.08,4.807,4.807,0,0,0,4.49,3.33,9.657,9.657,0,0,1-5.97,2.06,10.734,10.734,0,0,1-1.14-.07,13.651,13.651,0,0,0,21.02-11.5c0-.21-0.01-0.42-0.02-0.62A9.965,9.965,0,0,0,1312.2,4043.24Z" transform="translate(-1288.81 -4041)"/>
</svg>
