<svg xmlns="http://www.w3.org/2000/svg" viewBox="0 0 156.19 200"><defs><style>.cls-1{fill:#32afc5;}</style></defs><g id="Слой_2" data-name="Слой 2"><g id="Layer_26" data-name="Layer 26"><path class="cls-1" d="M82.1,122.93c.75-3.1,4.9-4.18,4.9-4.18a49.79,49.79,0,0,0,16.68-14.06c1.92-.56,3.79-1.17,5.57-1.84,46.52-17.4,46.94-69.45,46.94-69.45,0-6.93-6.59-8.58-6.59-8.58h-22c.07-1.19.14-2.32.2-3.39a4.86,4.86,0,0,0,2.49-4.23V13.7a4.68,4.68,0,0,0,0-.66v-8a4.87,4.87,0,0,0,0-.66,5.09,5.09,0,0,0-5-4.42h-96a5.09,5.09,0,0,0-4.8,3.41V17.2A4.86,4.86,0,0,0,27,21.48c.06,1.05.13,2.17.2,3.34H6.6S0,26.47,0,33.4c0,0,.4,49.6,43.69,68.15,2.18.93,4.48,1.78,6.88,2.54a50.08,50.08,0,0,0,17.14,14.66s3.87,1,4.81,3.86a4.14,4.14,0,0,1,.2,1.39,5.68,5.68,0,0,1-.06.69v44.18s0,3.48-3.47,7.79h0c-3.86,4.79-12,10.65-29.23,14a8.46,8.46,0,0,0-1.67.32A4.68,4.68,0,0,0,40,200h74.71a4.68,4.68,0,0,0,1.71-9,9.3,9.3,0,0,0-1.67-.32c-18.55-3.58-26.58-10.1-30-15.07h0c-2.65-3.78-2.65-6.67-2.65-6.7V124.69a4.24,4.24,0,0,1,0-1.17A3.82,3.82,0,0,1,82.1,122.93Zm57.6-88.87c7.42.49,6.43,6.43,6.43,6.43-4,28-17,41.49-28.55,48a47.8,47.8,0,0,1-5.44,2.62c9-18.16,12.93-40.43,14.63-57ZM35.42,86.49C24.78,79.4,13.67,66,10.06,40.49c0,0-1-5.94,6.43-6.43H27.94c1.67,16.33,5.5,38.19,14.23,56.2A48.27,48.27,0,0,1,35.42,86.49Z"/></g></g></svg>