<svg xmlns="http://www.w3.org/2000/svg" width="27.12" height="19" viewBox="0 0 27.12 19">
  <defs>
    <style>
      .cls-1 {
        fill: #fff;
        fill-rule: evenodd;
        opacity: 0.5;
      }
    </style>
  </defs>
  <path id="youtube" class="cls-1" d="M1278.58,4043.57a3.43,3.43,0,0,0-2.93-2.68,135.746,135.746,0,0,0-20.3,0,3.43,3.43,0,0,0-2.93,2.68,29.422,29.422,0,0,0-.48,6.44,28.819,28.819,0,0,0,.48,6.44,3.43,3.43,0,0,0,2.93,2.68,135.746,135.746,0,0,0,20.3,0,3.453,3.453,0,0,0,2.93-2.68A44.356,44.356,0,0,0,1278.58,4043.57ZM1262,4054.24v-9.01c2.87,1.5,5.73,3,8.62,4.52C1267.73,4051.25,1264.88,4052.74,1262,4054.24Z" transform="translate(-1251.94 -4040.5)"/>
</svg>
